version 1
nodes
  0 "tile" -1
end
skeleton
time 0
  0 0 0 0 0 0 0
end
triangles
tile00.bmp
0 0.0000 0.0000 2.0000 0.0000 0.0000 1.0000 0.5000 0.5000
0 44.0000 0.0000 2.0000 0.0000 0.0000 1.0000 0.5000 0.9922
0 22.0000 38.1051 2.0000 0.0000 0.0000 1.0000 0.0738 0.7461
tile00.bmp
0 0.0000 0.0000 2.0000 0.0000 0.0000 1.0000 0.5000 0.5000
0 22.0000 38.1051 2.0000 0.0000 0.0000 1.0000 0.0738 0.7461
0 44.0000 0.0000 2.0000 0.0000 0.0000 1.0000 0.5000 0.9922
tile00.bmp
0 44.0000 0.0000 0.0000 0.8660 0.5000 0.0000 0.5000 0.0200
0 22.0000 38.1051 0.0000 0.8660 0.5000 0.0000 0.5000 0.0200
0 22.0000 38.1051 2.0000 0.8660 0.5000 0.0000 0.5000 0.0200
tile00.bmp
0 44.0000 0.0000 0.0000 0.8660 0.5000 0.0000 0.5000 0.0200
0 22.0000 38.1051 2.0000 0.8660 0.5000 0.0000 0.5000 0.0200
0 22.0000 38.1051 0.0000 0.8660 0.5000 0.0000 0.5000 0.0200
tile00.bmp
0 44.0000 0.0000 0.0000 0.8660 0.5000 0.0000 0.5000 0.0200
0 22.0000 38.1051 2.0000 0.8660 0.5000 0.0000 0.5000 0.0200
0 44.0000 0.0000 2.0000 0.8660 0.5000 0.0000 0.5000 0.0200
tile00.bmp
0 44.0000 0.0000 0.0000 0.8660 0.5000 0.0000 0.5000 0.0200
0 44.0000 0.0000 2.0000 0.8660 0.5000 0.0000 0.5000 0.0200
0 22.0000 38.1051 2.0000 0.8660 0.5000 0.0000 0.5000 0.0200
tile00.bmp
0 0.0000 0.0000 0.0000 0.0000 0.0000 -1.0000 0.5000 0.0200
0 22.0000 38.1051 0.0000 0.0000 0.0000 -1.0000 0.5000 0.0200
0 44.0000 0.0000 0.0000 0.0000 0.0000 -1.0000 0.5000 0.0200
tile00.bmp
0 0.0000 0.0000 0.0000 0.0000 0.0000 -1.0000 0.5000 0.0200
0 44.0000 0.0000 0.0000 0.0000 0.0000 -1.0000 0.5000 0.0200
0 22.0000 38.1051 0.0000 0.0000 0.0000 -1.0000 0.5000 0.0200
tile00.bmp
0 0.0000 0.0000 2.0000 0.0000 0.0000 1.0000 0.5000 0.5000
0 22.0000 38.1051 2.0000 0.0000 0.0000 1.0000 0.0738 0.7461
0 -22.0000 38.1051 2.0000 0.0000 0.0000 1.0000 0.0738 0.2539
tile00.bmp
0 0.0000 0.0000 2.0000 0.0000 0.0000 1.0000 0.5000 0.5000
0 -22.0000 38.1051 2.0000 0.0000 0.0000 1.0000 0.0738 0.2539
0 22.0000 38.1051 2.0000 0.0000 0.0000 1.0000 0.0738 0.7461
tile00.bmp
0 22.0000 38.1051 0.0000 0.0000 1.0000 0.0000 0.5000 0.0200
0 -22.0000 38.1051 0.0000 0.0000 1.0000 0.0000 0.5000 0.0200
0 -22.0000 38.1051 2.0000 0.0000 1.0000 0.0000 0.5000 0.0200
tile00.bmp
0 22.0000 38.1051 0.0000 0.0000 1.0000 0.0000 0.5000 0.0200
0 -22.0000 38.1051 2.0000 0.0000 1.0000 0.0000 0.5000 0.0200
0 -22.0000 38.1051 0.0000 0.0000 1.0000 0.0000 0.5000 0.0200
tile00.bmp
0 22.0000 38.1051 0.0000 0.0000 1.0000 0.0000 0.5000 0.0200
0 -22.0000 38.1051 2.0000 0.0000 1.0000 0.0000 0.5000 0.0200
0 22.0000 38.1051 2.0000 0.0000 1.0000 0.0000 0.5000 0.0200
tile00.bmp
0 22.0000 38.1051 0.0000 0.0000 1.0000 0.0000 0.5000 0.0200
0 22.0000 38.1051 2.0000 0.0000 1.0000 0.0000 0.5000 0.0200
0 -22.0000 38.1051 2.0000 0.0000 1.0000 0.0000 0.5000 0.0200
tile00.bmp
0 0.0000 0.0000 0.0000 0.0000 0.0000 -1.0000 0.5000 0.0200
0 -22.0000 38.1051 0.0000 0.0000 0.0000 -1.0000 0.5000 0.0200
0 22.0000 38.1051 0.0000 0.0000 0.0000 -1.0000 0.5000 0.0200
tile00.bmp
0 0.0000 0.0000 0.0000 0.0000 0.0000 -1.0000 0.5000 0.0200
0 22.0000 38.1051 0.0000 0.0000 0.0000 -1.0000 0.5000 0.0200
0 -22.0000 38.1051 0.0000 0.0000 0.0000 -1.0000 0.5000 0.0200
tile00.bmp
0 0.0000 0.0000 2.0000 0.0000 0.0000 1.0000 0.5000 0.5000
0 -22.0000 38.1051 2.0000 0.0000 0.0000 1.0000 0.0738 0.2539
0 -44.0000 0.0000 2.0000 0.0000 0.0000 1.0000 0.5000 0.0078
tile00.bmp
0 0.0000 0.0000 2.0000 0.0000 0.0000 1.0000 0.5000 0.5000
0 -44.0000 0.0000 2.0000 0.0000 0.0000 1.0000 0.5000 0.0078
0 -22.0000 38.1051 2.0000 0.0000 0.0000 1.0000 0.0738 0.2539
tile00.bmp
0 -22.0000 38.1051 0.0000 -0.8660 0.5000 0.0000 0.5000 0.0200
0 -44.0000 0.0000 0.0000 -0.8660 0.5000 0.0000 0.5000 0.0200
0 -44.0000 0.0000 2.0000 -0.8660 0.5000 0.0000 0.5000 0.0200
tile00.bmp
0 -22.0000 38.1051 0.0000 -0.8660 0.5000 0.0000 0.5000 0.0200
0 -44.0000 0.0000 2.0000 -0.8660 0.5000 0.0000 0.5000 0.0200
0 -44.0000 0.0000 0.0000 -0.8660 0.5000 0.0000 0.5000 0.0200
tile00.bmp
0 -22.0000 38.1051 0.0000 -0.8660 0.5000 0.0000 0.5000 0.0200
0 -44.0000 0.0000 2.0000 -0.8660 0.5000 0.0000 0.5000 0.0200
0 -22.0000 38.1051 2.0000 -0.8660 0.5000 0.0000 0.5000 0.0200
tile00.bmp
0 -22.0000 38.1051 0.0000 -0.8660 0.5000 0.0000 0.5000 0.0200
0 -22.0000 38.1051 2.0000 -0.8660 0.5000 0.0000 0.5000 0.0200
0 -44.0000 0.0000 2.0000 -0.8660 0.5000 0.0000 0.5000 0.0200
tile00.bmp
0 0.0000 0.0000 0.0000 0.0000 0.0000 -1.0000 0.5000 0.0200
0 -44.0000 0.0000 0.0000 0.0000 0.0000 -1.0000 0.5000 0.0200
0 -22.0000 38.1051 0.0000 0.0000 0.0000 -1.0000 0.5000 0.0200
tile00.bmp
0 0.0000 0.0000 0.0000 0.0000 0.0000 -1.0000 0.5000 0.0200
0 -22.0000 38.1051 0.0000 0.0000 0.0000 -1.0000 0.5000 0.0200
0 -44.0000 0.0000 0.0000 0.0000 0.0000 -1.0000 0.5000 0.0200
tile00.bmp
0 0.0000 0.0000 2.0000 0.0000 0.0000 1.0000 0.5000 0.5000
0 -44.0000 0.0000 2.0000 0.0000 0.0000 1.0000 0.5000 0.0078
0 -22.0000 -38.1051 2.0000 0.0000 0.0000 1.0000 0.9262 0.2539
tile00.bmp
0 0.0000 0.0000 2.0000 0.0000 0.0000 1.0000 0.5000 0.5000
0 -22.0000 -38.1051 2.0000 0.0000 0.0000 1.0000 0.9262 0.2539
0 -44.0000 0.0000 2.0000 0.0000 0.0000 1.0000 0.5000 0.0078
tile00.bmp
0 -44.0000 0.0000 0.0000 -0.8660 -0.5000 0.0000 0.5000 0.0200
0 -22.0000 -38.1051 0.0000 -0.8660 -0.5000 0.0000 0.5000 0.0200
0 -22.0000 -38.1051 2.0000 -0.8660 -0.5000 0.0000 0.5000 0.0200
tile00.bmp
0 -44.0000 0.0000 0.0000 -0.8660 -0.5000 0.0000 0.5000 0.0200
0 -22.0000 -38.1051 2.0000 -0.8660 -0.5000 0.0000 0.5000 0.0200
0 -22.0000 -38.1051 0.0000 -0.8660 -0.5000 0.0000 0.5000 0.0200
tile00.bmp
0 -44.0000 0.0000 0.0000 -0.8660 -0.5000 0.0000 0.5000 0.0200
0 -22.0000 -38.1051 2.0000 -0.8660 -0.5000 0.0000 0.5000 0.0200
0 -44.0000 0.0000 2.0000 -0.8660 -0.5000 0.0000 0.5000 0.0200
tile00.bmp
0 -44.0000 0.0000 0.0000 -0.8660 -0.5000 0.0000 0.5000 0.0200
0 -44.0000 0.0000 2.0000 -0.8660 -0.5000 0.0000 0.5000 0.0200
0 -22.0000 -38.1051 2.0000 -0.8660 -0.5000 0.0000 0.5000 0.0200
tile00.bmp
0 0.0000 0.0000 0.0000 0.0000 0.0000 -1.0000 0.5000 0.0200
0 -22.0000 -38.1051 0.0000 0.0000 0.0000 -1.0000 0.5000 0.0200
0 -44.0000 0.0000 0.0000 0.0000 0.0000 -1.0000 0.5000 0.0200
tile00.bmp
0 0.0000 0.0000 0.0000 0.0000 0.0000 -1.0000 0.5000 0.0200
0 -44.0000 0.0000 0.0000 0.0000 0.0000 -1.0000 0.5000 0.0200
0 -22.0000 -38.1051 0.0000 0.0000 0.0000 -1.0000 0.5000 0.0200
tile00.bmp
0 0.0000 0.0000 2.0000 0.0000 0.0000 1.0000 0.5000 0.5000
0 -22.0000 -38.1051 2.0000 0.0000 0.0000 1.0000 0.9262 0.2539
0 22.0000 -38.1051 2.0000 0.0000 0.0000 1.0000 0.9262 0.7461
tile00.bmp
0 0.0000 0.0000 2.0000 0.0000 0.0000 1.0000 0.5000 0.5000
0 22.0000 -38.1051 2.0000 0.0000 0.0000 1.0000 0.9262 0.7461
0 -22.0000 -38.1051 2.0000 0.0000 0.0000 1.0000 0.9262 0.2539
tile00.bmp
0 -22.0000 -38.1051 0.0000 -0.0000 -1.0000 0.0000 0.5000 0.0200
0 22.0000 -38.1051 0.0000 -0.0000 -1.0000 0.0000 0.5000 0.0200
0 22.0000 -38.1051 2.0000 -0.0000 -1.0000 0.0000 0.5000 0.0200
tile00.bmp
0 -22.0000 -38.1051 0.0000 -0.0000 -1.0000 0.0000 0.5000 0.0200
0 22.0000 -38.1051 2.0000 -0.0000 -1.0000 0.0000 0.5000 0.0200
0 22.0000 -38.1051 0.0000 -0.0000 -1.0000 0.0000 0.5000 0.0200
tile00.bmp
0 -22.0000 -38.1051 0.0000 -0.0000 -1.0000 0.0000 0.5000 0.0200
0 22.0000 -38.1051 2.0000 -0.0000 -1.0000 0.0000 0.5000 0.0200
0 -22.0000 -38.1051 2.0000 -0.0000 -1.0000 0.0000 0.5000 0.0200
tile00.bmp
0 -22.0000 -38.1051 0.0000 -0.0000 -1.0000 0.0000 0.5000 0.0200
0 -22.0000 -38.1051 2.0000 -0.0000 -1.0000 0.0000 0.5000 0.0200
0 22.0000 -38.1051 2.0000 -0.0000 -1.0000 0.0000 0.5000 0.0200
tile00.bmp
0 0.0000 0.0000 0.0000 0.0000 0.0000 -1.0000 0.5000 0.0200
0 22.0000 -38.1051 0.0000 0.0000 0.0000 -1.0000 0.5000 0.0200
0 -22.0000 -38.1051 0.0000 0.0000 0.0000 -1.0000 0.5000 0.0200
tile00.bmp
0 0.0000 0.0000 0.0000 0.0000 0.0000 -1.0000 0.5000 0.0200
0 -22.0000 -38.1051 0.0000 0.0000 0.0000 -1.0000 0.5000 0.0200
0 22.0000 -38.1051 0.0000 0.0000 0.0000 -1.0000 0.5000 0.0200
tile00.bmp
0 0.0000 0.0000 2.0000 0.0000 0.0000 1.0000 0.5000 0.5000
0 22.0000 -38.1051 2.0000 0.0000 0.0000 1.0000 0.9262 0.7461
0 44.0000 0.0000 2.0000 0.0000 0.0000 1.0000 0.5000 0.9922
tile00.bmp
0 0.0000 0.0000 2.0000 0.0000 0.0000 1.0000 0.5000 0.5000
0 44.0000 0.0000 2.0000 0.0000 0.0000 1.0000 0.5000 0.9922
0 22.0000 -38.1051 2.0000 0.0000 0.0000 1.0000 0.9262 0.7461
tile00.bmp
0 22.0000 -38.1051 0.0000 0.8660 -0.5000 0.0000 0.5000 0.0200
0 44.0000 0.0000 0.0000 0.8660 -0.5000 0.0000 0.5000 0.0200
0 44.0000 0.0000 2.0000 0.8660 -0.5000 0.0000 0.5000 0.0200
tile00.bmp
0 22.0000 -38.1051 0.0000 0.8660 -0.5000 0.0000 0.5000 0.0200
0 44.0000 0.0000 2.0000 0.8660 -0.5000 0.0000 0.5000 0.0200
0 44.0000 0.0000 0.0000 0.8660 -0.5000 0.0000 0.5000 0.0200
tile00.bmp
0 22.0000 -38.1051 0.0000 0.8660 -0.5000 0.0000 0.5000 0.0200
0 44.0000 0.0000 2.0000 0.8660 -0.5000 0.0000 0.5000 0.0200
0 22.0000 -38.1051 2.0000 0.8660 -0.5000 0.0000 0.5000 0.0200
tile00.bmp
0 22.0000 -38.1051 0.0000 0.8660 -0.5000 0.0000 0.5000 0.0200
0 22.0000 -38.1051 2.0000 0.8660 -0.5000 0.0000 0.5000 0.0200
0 44.0000 0.0000 2.0000 0.8660 -0.5000 0.0000 0.5000 0.0200
tile00.bmp
0 0.0000 0.0000 0.0000 0.0000 0.0000 -1.0000 0.5000 0.0200
0 44.0000 0.0000 0.0000 0.0000 0.0000 -1.0000 0.5000 0.0200
0 22.0000 -38.1051 0.0000 0.0000 0.0000 -1.0000 0.5000 0.0200
tile00.bmp
0 0.0000 0.0000 0.0000 0.0000 0.0000 -1.0000 0.5000 0.0200
0 22.0000 -38.1051 0.0000 0.0000 0.0000 -1.0000 0.5000 0.0200
0 44.0000 0.0000 0.0000 0.0000 0.0000 -1.0000 0.5000 0.0200
end
