version 1
nodes
  0 "dice" -1
end
skeleton
time 0
  0 0 0 0 0 0 0
end
triangles
case00.bmp
0 18.0000 -18.0000 -18.0000 1 0 0 0.0000 0.0000
0 18.0000 18.0000 -18.0000 1 0 0 1.0000 0.0000
0 18.0000 18.0000 18.0000 1 0 0 1.0000 1.0000
case00.bmp
0 18.0000 18.0000 18.0000 1 0 0 1.0000 1.0000
0 18.0000 18.0000 -18.0000 1 0 0 1.0000 0.0000
0 18.0000 -18.0000 -18.0000 1 0 0 0.0000 0.0000
case00.bmp
0 18.0000 -18.0000 -18.0000 1 0 0 0.0000 0.0000
0 18.0000 18.0000 18.0000 1 0 0 1.0000 1.0000
0 18.0000 -18.0000 18.0000 1 0 0 0.0000 1.0000
case00.bmp
0 18.0000 -18.0000 18.0000 1 0 0 0.0000 1.0000
0 18.0000 18.0000 18.0000 1 0 0 1.0000 1.0000
0 18.0000 -18.0000 -18.0000 1 0 0 0.0000 0.0000
case00.bmp
0 -18.0000 18.0000 -18.0000 -1 0 0 0.0000 0.0000
0 -18.0000 -18.0000 -18.0000 -1 0 0 1.0000 0.0000
0 -18.0000 -18.0000 18.0000 -1 0 0 1.0000 1.0000
case00.bmp
0 -18.0000 -18.0000 18.0000 -1 0 0 1.0000 1.0000
0 -18.0000 -18.0000 -18.0000 -1 0 0 1.0000 0.0000
0 -18.0000 18.0000 -18.0000 -1 0 0 0.0000 0.0000
case00.bmp
0 -18.0000 18.0000 -18.0000 -1 0 0 0.0000 0.0000
0 -18.0000 -18.0000 18.0000 -1 0 0 1.0000 1.0000
0 -18.0000 18.0000 18.0000 -1 0 0 0.0000 1.0000
case00.bmp
0 -18.0000 18.0000 18.0000 -1 0 0 0.0000 1.0000
0 -18.0000 -18.0000 18.0000 -1 0 0 1.0000 1.0000
0 -18.0000 18.0000 -18.0000 -1 0 0 0.0000 0.0000
case00.bmp
0 18.0000 18.0000 -18.0000 0 1 0 0.0000 0.0000
0 -18.0000 18.0000 -18.0000 0 1 0 1.0000 0.0000
0 -18.0000 18.0000 18.0000 0 1 0 1.0000 1.0000
case00.bmp
0 -18.0000 18.0000 18.0000 0 1 0 1.0000 1.0000
0 -18.0000 18.0000 -18.0000 0 1 0 1.0000 0.0000
0 18.0000 18.0000 -18.0000 0 1 0 0.0000 0.0000
case00.bmp
0 18.0000 18.0000 -18.0000 0 1 0 0.0000 0.0000
0 -18.0000 18.0000 18.0000 0 1 0 1.0000 1.0000
0 18.0000 18.0000 18.0000 0 1 0 0.0000 1.0000
case00.bmp
0 18.0000 18.0000 18.0000 0 1 0 0.0000 1.0000
0 -18.0000 18.0000 18.0000 0 1 0 1.0000 1.0000
0 18.0000 18.0000 -18.0000 0 1 0 0.0000 0.0000
case00.bmp
0 -18.0000 -18.0000 -18.0000 0 -1 0 0.0000 0.0000
0 18.0000 -18.0000 -18.0000 0 -1 0 1.0000 0.0000
0 18.0000 -18.0000 18.0000 0 -1 0 1.0000 1.0000
case00.bmp
0 18.0000 -18.0000 18.0000 0 -1 0 1.0000 1.0000
0 18.0000 -18.0000 -18.0000 0 -1 0 1.0000 0.0000
0 -18.0000 -18.0000 -18.0000 0 -1 0 0.0000 0.0000
case00.bmp
0 -18.0000 -18.0000 -18.0000 0 -1 0 0.0000 0.0000
0 18.0000 -18.0000 18.0000 0 -1 0 1.0000 1.0000
0 -18.0000 -18.0000 18.0000 0 -1 0 0.0000 1.0000
case00.bmp
0 -18.0000 -18.0000 18.0000 0 -1 0 0.0000 1.0000
0 18.0000 -18.0000 18.0000 0 -1 0 1.0000 1.0000
0 -18.0000 -18.0000 -18.0000 0 -1 0 0.0000 0.0000
case00.bmp
0 -18.0000 18.0000 18.0000 0 0 1 0.0000 0.0000
0 -18.0000 -18.0000 18.0000 0 0 1 1.0000 0.0000
0 18.0000 -18.0000 18.0000 0 0 1 1.0000 1.0000
case00.bmp
0 18.0000 -18.0000 18.0000 0 0 1 1.0000 1.0000
0 -18.0000 -18.0000 18.0000 0 0 1 1.0000 0.0000
0 -18.0000 18.0000 18.0000 0 0 1 0.0000 0.0000
case00.bmp
0 -18.0000 18.0000 18.0000 0 0 1 0.0000 0.0000
0 18.0000 -18.0000 18.0000 0 0 1 1.0000 1.0000
0 18.0000 18.0000 18.0000 0 0 1 0.0000 1.0000
case00.bmp
0 18.0000 18.0000 18.0000 0 0 1 0.0000 1.0000
0 18.0000 -18.0000 18.0000 0 0 1 1.0000 1.0000
0 -18.0000 18.0000 18.0000 0 0 1 0.0000 0.0000
case00.bmp
0 -18.0000 -18.0000 -18.0000 0 0 -1 0.0000 0.0000
0 -18.0000 18.0000 -18.0000 0 0 -1 1.0000 0.0000
0 18.0000 18.0000 -18.0000 0 0 -1 1.0000 1.0000
case00.bmp
0 18.0000 18.0000 -18.0000 0 0 -1 1.0000 1.0000
0 -18.0000 18.0000 -18.0000 0 0 -1 1.0000 0.0000
0 -18.0000 -18.0000 -18.0000 0 0 -1 0.0000 0.0000
case00.bmp
0 -18.0000 -18.0000 -18.0000 0 0 -1 0.0000 0.0000
0 18.0000 18.0000 -18.0000 0 0 -1 1.0000 1.0000
0 18.0000 -18.0000 -18.0000 0 0 -1 0.0000 1.0000
case00.bmp
0 18.0000 -18.0000 -18.0000 0 0 -1 0.0000 1.0000
0 18.0000 18.0000 -18.0000 0 0 -1 1.0000 1.0000
0 -18.0000 -18.0000 -18.0000 0 0 -1 0.0000 0.0000
end
