version 1
nodes
  0 "card" -1
end
skeleton
time 0
  0 0 0 0 0 0 0
end
triangles
marker.bmp
0 -0.5500 0.0000 -19.0000 0 -1 0 0.0000 0.0000
0 0.5500 0.0000 -19.0000 0 -1 0 1.0000 0.0000
0 0.5500 0.0000 19.0000 0 -1 0 1.0000 1.0000
marker.bmp
0 -0.5500 0.0000 -19.0000 0 -1 0 0.0000 0.0000
0 0.5500 0.0000 19.0000 0 -1 0 1.0000 1.0000
0 -0.5500 0.0000 19.0000 0 -1 0 0.0000 1.0000
marker.bmp
0 -3.2000 0.0000 19.0000 0 -1 0 0.5000 0.5000
0 0.0000 0.0000 14.5000 0 -1 0 0.5000 0.5000
0 3.2000 0.0000 19.0000 0 -1 0 0.5000 0.5000
marker.bmp
0 -3.2000 0.0000 -19.0000 0 -1 0 0.5000 0.5000
0 3.2000 0.0000 -19.0000 0 -1 0 0.5000 0.5000
0 0.0000 0.0000 -14.5000 0 -1 0 0.5000 0.5000
end
